<?xml version="1.0" encoding="utf-8"?>
<!-- Generator: Adobe Illustrator 21.1.0, SVG Export Plug-In . SVG Version: 6.00 Build 0)  -->
<svg version="1.1" id="Слой_1" xmlns="http://www.w3.org/2000/svg" xmlns:xlink="http://www.w3.org/1999/xlink" x="0px" y="0px"
	 viewBox="0 0 1920 1080" style="enable-background:new 0 0 1920 1080;" xml:space="preserve">
<style type="text/css">
	.st0{fill:none;}
</style>
<path class="st0" d="M727,463V348 M757,293l-30,55 M814,267l-57,26 M1193,266l-379,1 M727,463l36-45 M954,416l-191,2 M1024,438
	l-70-22 M1078,497l-54-59 M1096,604l-18-107 M1087,699l9-95 M1051,776l36-77 M949,814l102-38 M1100,814H949 M1169,781l-69,33
	 M1193,722l-24,59 M1193,266v456 M801,488v257 M936,476H808 M942,754H810 M808,476l-7,12 M801,745l9,9 M942,754l47-24 M936,476
	l57,31 M1018,604l-25-97 M989,730l26-68 M1018,604l-3,58 M877,476l-31,56 M847,725l-1-193 M868,754l-21-29 M877,476l58,51 M951,609
	l-16-82 M947,660l4-51 M915,721l32-61 M868,754l47-33 M727,398l34-47 M820,333l-59,18 M1000,329l-180,4 M1076,354l-76-25 M1138,471
	l-62-117 M1156,600l-18-129 M1140,712l16-112 M1076,790l64-78"/>
</svg>
