<?xml version="1.0" encoding="utf-8"?>
<!-- Generator: Adobe Illustrator 19.0.0, SVG Export Plug-In . SVG Version: 6.00 Build 0)  -->
<svg version="1.1" id="Layer_1" xmlns="http://www.w3.org/2000/svg" xmlns:xlink="http://www.w3.org/1999/xlink" x="0px" y="0px"
	 viewBox="0 0 600 200" style="enable-background:new 0 0 600 200;" xml:space="preserve">
<style type="text/css">
	.st0{fill-rule:evenodd;clip-rule:evenodd;fill:#212020;}
	.st1{fill:#212020;}
</style>
<g>
	<path class="st0" d="M64.7,39.9H81h21.2v21.2v4.6V139c0,11.7-9.6,21.2-21.2,21.2H48.6c3.4,0,6.5-0.3,9.1-1c2.7-0.7,5-1.5,7-2.6
		c2-1.1,3.7-2.2,5-3.5c1.3-1.2,2.5-2.5,3.4-3.6c1.7-2.3,3.1-5,4.2-7.9c1-3,1.8-6,2.4-9.1c0.5-3.1,0.9-6.1,1-9c0.1-2.9,0.2-5.6,0.2-8
		c0-2.6-0.1-5.3-0.2-8.1c-0.1-2.8-0.5-5.7-1.1-8.5c-0.6-2.8-1.5-5.6-2.7-8.2c-1.2-2.7-2.9-5.2-4.9-7.5c-2.7-2.9-6.1-5.4-10.2-7.4
		c-4.2-2-9.3-3-15.4-3H12.1c-2.7,0-4.7,0.5-6.2,1.4c-1.5,0.9-2.5,1.7-3.2,2.4c-1.4,1.7-2.3,3.4-2.6,5.1c-0.1,0.5-0.1,0.9-0.2,1.4
		V61.2c0-11.7,9.6-21.2,21.2-21.2H64.7L64.7,39.9z M16.3,91.2c0-0.9,0.2-1.8,0.5-2.6c0.3-0.8,0.8-1.4,1.2-1.8c0.6-0.4,1.2-0.7,2-0.8
		c0.7-0.1,1.4-0.1,1.9-0.1H39c1.5,0,3.1,0.1,4.7,0.3c1.7,0.2,3.3,0.5,5,0.9c1.7,0.5,3.3,1.1,4.8,1.9c1.5,0.8,2.9,1.9,4.2,3.2
		c1.3,1.4,2.4,3,3.2,4.8c0.8,1.8,1.5,3.6,1.9,5.6c0.4,1.9,0.7,3.9,0.8,5.9c0.1,2,0.2,3.9,0.2,5.7c0,7.4-0.5,13-1.4,16.7
		c-0.9,3.7-1.9,6.4-3,8.1c-1.9,3.1-4.4,5.2-7.4,6.4c-3,1.2-6.8,1.7-11.4,1.7h-19c-0.7,0-1.5,0-2.2-0.1c-0.8-0.1-1.4-0.5-2-1.1
		c-0.7-0.7-1-1.4-1.1-2.2c0-0.8-0.1-1.6-0.1-2.6V91.2L16.3,91.2z"/>
	<path class="st1" d="M167.1,70.9v13.7h-12.6c-0.9,0-1.9,0.1-3.1,0.2c-1.2,0.1-2.5,0.4-3.8,0.8c-1.3,0.4-2.6,1-3.9,1.9
		c-1.3,0.9-2.5,2-3.5,3.5c-1.4,2.1-2.4,4.4-2.7,7c-0.4,2.6-0.6,5-0.6,7.3c0,3.5,0.2,6.4,0.6,8.5c0.4,2.1,0.9,3.8,1.4,5
		c0.8,1.9,1.8,3.4,2.9,4.5c1.1,1.1,2.3,1.9,3.5,2.5c1.2,0.6,2.5,1,3.7,1.2c1.3,0.2,2.4,0.3,3.5,0.3h16.8c1,0,2-0.1,3.1-0.3
		c1.1-0.2,2-0.8,2.8-1.8c0.4-0.6,0.7-1.4,1-2.4c0.2-1,0.3-2,0.3-2.9V70.9H167.1L167.1,70.9z M167.1,91.7v24.5c0,0.3,0,0.8-0.1,1.5
		c-0.1,0.7-0.3,1.2-0.6,1.5c-0.3,0.3-0.8,0.5-1.3,0.6c-0.6,0.1-0.9,0.1-1.2,0.1h-7.5c-0.7,0-1.4-0.1-2.2-0.2
		c-0.8-0.1-1.6-0.3-2.4-0.6c-0.8-0.3-1.5-0.8-2.2-1.4c-0.7-0.6-1.3-1.5-1.8-2.6c-0.2-0.4-0.4-1.2-0.7-2.6c-0.3-1.3-0.4-3.7-0.4-7
		c0-2.9,0.2-5.1,0.6-6.6c0.4-1.5,0.8-2.6,1.3-3.4c1-1.7,2.3-2.7,3.8-3.1c1.5-0.4,2.9-0.6,4.1-0.6H167.1L167.1,91.7z M184.9,84.5v7.2
		h21c0.8,0,1.5,0.1,2.4,0.3c0.8,0.2,1.6,0.7,2.2,1.5c0.5,0.6,0.9,1.3,1,2c0.1,0.7,0.2,1.4,0.2,2v3h-18.5c-1.1,0-2.4,0.1-3.7,0.4
		c-1.4,0.2-2.7,0.9-4.1,2.1c-1.6,1.4-2.6,3-3,4.8c-0.4,1.8-0.6,3.7-0.6,5.5c0,0.8,0,1.7,0.1,2.7c0.1,1,0.2,2.1,0.4,3.1
		c0.2,1.1,0.6,2.1,1.1,3.1c0.5,1,1.2,1.9,2,2.6c1.2,1.1,2.5,1.7,3.9,1.8c1.4,0.2,2.6,0.2,3.8,0.2h20.3c1,0,2.1-0.1,3.1-0.3
		c1.1-0.2,2-0.7,2.7-1.4c0.7-0.8,1.2-1.7,1.4-2.7c0.2-1.1,0.3-2,0.3-2.7V97.9c0-2.4-0.3-4.5-0.9-6.1c-0.6-1.7-1.3-3-2.2-3.9
		c-1-1-2.2-1.8-3.8-2.4c-1.6-0.6-3.2-0.9-5.1-0.9H184.9L184.9,84.5z M211.6,107.8v9.8c0,0.3,0,0.6-0.1,0.9c-0.1,0.3-0.2,0.6-0.6,0.8
		c-0.3,0.3-0.7,0.4-1.1,0.4c-0.4,0-0.7,0-1,0h-13.1c-0.6,0-1.2-0.1-1.7-0.4c-0.6-0.3-1-0.6-1.3-0.9c-0.6-0.6-0.9-1.4-1.1-2.3
		c-0.1-1-0.2-1.8-0.2-2.4c0-1.6,0.1-2.6,0.4-3.3c0.3-0.6,0.5-1.1,0.6-1.3c0.5-0.7,1.2-1.1,1.9-1.2c0.7-0.1,1.2-0.2,1.6-0.2H211.6
		L211.6,107.8z M227.5,127.1h9.4v-24c0-1.6,0.1-3.1,0.4-4.6c0.3-1.4,0.9-2.7,1.8-3.8c1.1-1.3,2.4-2.2,3.9-2.5
		c1.5-0.3,2.9-0.5,4.1-0.5h3.9v-7.2h-6.3c-0.8,0-1.7,0-2.8,0.1c-1.1,0.1-2.2,0.2-3.3,0.4c-1.2,0.2-2.3,0.6-3.5,1.1
		c-1.2,0.5-2.2,1.2-3.2,2c-1.8,1.6-3,3.4-3.6,5.6c-0.6,2.2-0.8,4.4-0.8,6.8V127.1L227.5,127.1z M261.8,84.5H252l16.2,39.3
		c0.4,1,0.9,1.7,1.4,2.2c0.6,0.5,1.2,0.9,1.8,1.1c0.6,0.2,1.2,0.4,1.8,0.4c0.6,0,1.1,0,1.5,0c0.6,0,1.2,0,1.8-0.1
		c0.6-0.1,1.2-0.2,1.8-0.4c0.6-0.2,1.1-0.6,1.6-1.1c0.5-0.5,0.9-1.2,1.3-2.1l16.2-39.3h-9.7L276,116.1c-0.1,0.3-0.3,0.7-0.5,1.1
		c-0.2,0.4-0.4,0.6-0.6,0.6c-0.2,0-0.4-0.2-0.6-0.6c-0.2-0.4-0.4-0.8-0.5-1.1L261.8,84.5L261.8,84.5z M298.9,127.1h9.4V84.5h-9.4
		V127.1L298.9,127.1z M308.3,78.3v-7.5h-9.4v7.5H308.3L308.3,78.3z M314.7,127.1h9.4V94c0-0.3,0-0.6,0-0.9c0-0.3,0.2-0.6,0.4-0.9
		c0.3-0.3,0.5-0.4,0.8-0.4c0.3,0,0.5,0,0.8,0h9.6c1.7,0,3.1,0.2,4.1,0.6c1,0.4,1.9,1.1,2.6,2c0.8,1,1.2,2.2,1.4,3.5
		c0.2,1.3,0.3,2.7,0.3,4.1v25.2h9.4v-28c0-2.9-0.4-5.3-1.2-7c-0.8-1.7-1.8-3.1-2.9-4.1c-1.7-1.6-3.6-2.5-5.5-2.9
		c-2-0.4-4.1-0.6-6.3-0.6h-15c-0.9,0-2,0.1-3.3,0.2c-1.3,0.1-2.3,0.7-3.3,1.7c-0.6,0.7-1,1.5-1.2,2.3c-0.1,0.9-0.2,1.6-0.2,2.2
		V127.1L314.7,127.1z M378.2,127.1h27.2c1,0,2.1-0.1,3.4-0.3c1.2-0.2,2.4-0.7,3.5-1.5c0.8-0.6,1.6-1.7,2.4-3.1
		c0.8-1.4,1.2-3.4,1.2-6c0-1.2-0.2-2.5-0.5-3.9c-0.3-1.4-1-2.7-2.1-3.9c-1.1-1.1-2.5-2-4.2-2.7c-1.7-0.7-3.9-1.4-6.4-2.1l-9.2-2.6
		c-0.3-0.1-0.6-0.2-1.1-0.3c-0.5-0.2-1-0.3-1.5-0.5c-0.5-0.2-1-0.4-1.5-0.6c-0.5-0.2-0.9-0.5-1.2-0.7c-0.6-0.5-1-1.1-1.2-1.6
		c-0.1-0.5-0.2-1.1-0.2-1.7c0-0.6,0.1-1.1,0.2-1.6c0.1-0.5,0.5-1,1-1.4c0.5-0.4,1.1-0.7,1.6-0.7c0.6-0.1,1.1-0.1,1.6-0.1h22.6v-7.2
		h-24c-0.9,0-1.8,0-2.8,0.1c-0.9,0.1-1.8,0.2-2.7,0.4c-0.9,0.2-1.7,0.6-2.5,1.1c-0.8,0.5-1.5,1.2-2.2,2c-0.9,1.2-1.4,2.4-1.6,3.7
		c-0.2,1.3-0.4,2.5-0.4,3.5c0,1.1,0.1,2.2,0.4,3.5c0.2,1.3,0.8,2.5,1.6,3.7c0.9,1.2,2.1,2.2,3.6,3c1.6,0.8,3.5,1.5,5.7,2.1l8.2,2.2
		c1.5,0.4,2.7,0.8,3.6,1c0.9,0.3,1.6,0.5,2.2,0.7c0.6,0.2,1,0.4,1.2,0.5c0.3,0.1,0.5,0.3,0.6,0.4c0.5,0.5,0.9,1,1,1.5
		c0.1,0.5,0.2,1.1,0.2,1.7c0,0.3,0,0.7-0.1,1.2c-0.1,0.5-0.3,1-0.7,1.4c-0.4,0.5-0.9,0.9-1.5,1c-0.6,0.1-1.1,0.2-1.6,0.2h-23.9
		V127.1L378.2,127.1z M445.3,127.1v-7.2h-2.3c-0.9,0-2-0.1-3.5-0.2c-1.5-0.2-2.7-0.7-3.8-1.6c-0.7-0.5-1.2-1.2-1.6-2
		c-0.3-0.8-0.6-1.6-0.7-2.4c-0.1-0.8-0.2-1.6-0.2-2.4c0-0.9,0-1.7,0-2.4V91.8H445v-7.2h-11.9V70.9h-9.4v13.7h-5.9v7.2h5.9v21.4
		c0,2.7,0.4,4.9,1.1,6.6c0.7,1.7,1.8,3.1,3.2,4.2c1.3,1.1,2.9,1.9,4.5,2.4c1.7,0.5,4,0.8,6.9,0.8H445.3L445.3,127.1z M489.5,119.5
		V84.5h-9.4v31.9c0,0.4,0,0.9-0.1,1.3c-0.1,0.4-0.3,0.9-0.7,1.3c-0.6,0.6-1.5,0.9-2.7,0.9h-7.8c-1.7,0-3.2-0.2-4.5-0.5
		c-1.3-0.3-2.3-1.1-3.2-2.2c-0.6-0.8-1-1.8-1.2-2.9c-0.2-1.2-0.4-2.7-0.4-4.5V84.5h-9.4v26.8c0,2.6,0.3,5,0.8,7.1
		c0.6,2.1,1.7,3.9,3.5,5.5c1.4,1.2,3,2.1,4.8,2.5c1.7,0.5,3.8,0.7,6.3,0.7h15c1.1,0,2.3-0.1,3.5-0.2c1.2-0.2,2.3-0.6,3.2-1.4
		c1.1-0.9,1.7-1.9,1.9-3.1C489.3,121.2,489.5,120.2,489.5,119.5L489.5,119.5z M525,70.9v13.7h-12.6c-0.9,0-1.9,0.1-3.1,0.2
		c-1.2,0.1-2.5,0.4-3.8,0.8c-1.3,0.4-2.6,1-3.9,1.9c-1.3,0.9-2.5,2-3.5,3.5c-1.4,2.1-2.4,4.4-2.7,7c-0.4,2.6-0.6,5-0.6,7.3
		c0,3.5,0.2,6.4,0.6,8.5c0.4,2.1,0.9,3.8,1.4,5c0.8,1.9,1.8,3.4,2.8,4.5c1.1,1.1,2.3,1.9,3.5,2.5c1.2,0.6,2.5,1,3.7,1.2
		c1.3,0.2,2.4,0.3,3.5,0.3h16.8c1,0,2-0.1,3.1-0.3c1.1-0.2,2-0.8,2.8-1.8c0.4-0.6,0.7-1.4,1-2.4c0.2-1,0.3-2,0.3-2.9V70.9H525
		L525,70.9z M525,91.8v24.5c0,0.3,0,0.8-0.1,1.5c-0.1,0.7-0.3,1.2-0.6,1.5c-0.3,0.3-0.8,0.5-1.3,0.6c-0.6,0.1-1,0.1-1.2,0.1h-7.5
		c-0.7,0-1.4-0.1-2.2-0.2c-0.8-0.1-1.6-0.3-2.4-0.6c-0.8-0.3-1.5-0.8-2.2-1.4c-0.7-0.6-1.3-1.5-1.8-2.6c-0.2-0.4-0.4-1.2-0.7-2.6
		s-0.4-3.7-0.4-7c0-2.9,0.2-5.1,0.6-6.6c0.4-1.5,0.8-2.6,1.3-3.4c1-1.7,2.3-2.7,3.8-3.1c1.5-0.4,2.9-0.6,4.1-0.6H525L525,91.8z
		 M540.8,127.1h9.4V84.5h-9.4V127.1L540.8,127.1z M550.2,78.3v-7.5h-9.4v7.5H550.2L550.2,78.3z M578.1,84.1c-1.3,0-2.7,0-4.2,0.1
		c-1.5,0.1-3,0.2-4.6,0.5c-1.6,0.3-3.1,0.8-4.5,1.4c-1.4,0.6-2.8,1.5-3.9,2.5c-1.2,1.1-2.2,2.5-2.9,4c-0.7,1.5-1.3,3.1-1.6,4.7
		c-0.4,1.6-0.6,3.1-0.7,4.7c-0.1,1.6-0.2,2.9-0.2,4.1c0,1.1,0.1,2.3,0.2,3.8c0.1,1.5,0.3,3,0.7,4.6c0.3,1.6,0.9,3.1,1.6,4.6
		c0.7,1.5,1.7,2.8,3,4c1.2,1.1,2.5,1.9,3.9,2.5c1.4,0.6,2.9,1.1,4.5,1.4c1.6,0.3,3.1,0.5,4.6,0.6c1.5,0.1,2.9,0.1,4.2,0.1
		c1.2,0,2.6,0,4.1-0.1c1.5-0.1,3-0.3,4.6-0.6c1.6-0.3,3.1-0.7,4.6-1.4c1.5-0.6,2.8-1.5,3.9-2.5c1.6-1.5,2.9-3.6,3.9-6.4
		c1-2.8,1.6-6.4,1.6-11c0-1.1-0.1-2.4-0.2-3.9c-0.1-1.5-0.3-3-0.7-4.6c-0.4-1.6-0.9-3.1-1.6-4.6c-0.7-1.5-1.7-2.9-2.9-4
		c-1.2-1.1-2.5-1.9-3.9-2.5c-1.4-0.6-2.9-1.1-4.5-1.4c-1.6-0.3-3.1-0.5-4.6-0.5C580.8,84.1,579.4,84.1,578.1,84.1L578.1,84.1z
		 M565.2,105.9c0-0.7,0-1.5,0-2.5c0-1,0.1-2,0.3-3c0.2-1,0.4-2.1,0.8-3.1c0.4-1,0.9-1.9,1.5-2.7c0.6-0.8,1.4-1.4,2.3-1.8
		c0.9-0.5,1.8-0.8,2.7-1c0.9-0.2,1.8-0.4,2.8-0.4c0.9-0.1,1.8-0.1,2.5-0.1c0.9,0,1.7,0,2.6,0.1c0.9,0.1,1.8,0.2,2.7,0.4
		c0.9,0.2,1.7,0.6,2.6,1c0.8,0.5,1.6,1.1,2.3,1.8c0.7,0.8,1.3,1.7,1.7,2.7c0.4,1,0.6,2,0.8,3c0.2,1,0.2,2,0.2,3c0,0.9,0,1.8,0,2.6
		c0,1.9-0.1,3.8-0.4,5.7c-0.2,1.9-1.1,3.7-2.5,5.2c-1.4,1.6-3,2.5-4.8,2.9c-1.8,0.4-3.6,0.6-5.3,0.6c-1.7,0-3.5-0.2-5.3-0.6
		c-1.8-0.4-3.5-1.4-4.9-2.9c-1.3-1.6-2.1-3.3-2.4-5.3C565.3,109.5,565.2,107.7,565.2,105.9L565.2,105.9z"/>
</g>
</svg>
